<svg width="353" height="296" viewBox="0 0 353 296" fill="none" xmlns="http://www.w3.org/2000/svg">
<path d="M-0.5 295C0.637588 241.391 14.4678 156.602 122.111 131.519C158.266 124.707 166.649 125.231 223.763 122.611C277.733 118.419 325.624 104.377 351.614 0" stroke="#36D6AD" stroke-width="2"/>
<path d="M352 0C344.363 36.2991 293.997 109.098 153.624 109.901C86.2008 111.702 8.97441 140.567 0.724082 237.808V274C-0.261026 260.997 -0.221493 248.953 0.724082 237.808V0H352Z" fill="#36D6AD"/>
<path d="M352 0C344.363 36.2991 293.997 109.098 153.624 109.901C78.4734 111.908 -8.85629 147.538 0.724082 274V0H352Z" stroke="#36D6AD"/>
</svg>
