<svg width="248" height="313" viewBox="0 0 248 313" fill="none" xmlns="http://www.w3.org/2000/svg">
<path d="M90.7621 302.265C66.4985 300.449 46.1138 282.922 39.5387 258.548C31.3415 228.221 32.7786 195.003 44.2581 165.828C59.6583 126.654 92.8201 95.5206 131.838 83.5937C164.351 73.657 204.632 79.4563 223.842 108.512C236.371 127.468 237.445 151.932 237.536 174.941C237.634 196.938 237.187 219.283 231.114 240.382C225.042 261.481 212.565 281.431 193.83 291.633C176.975 300.816 157.134 301.239 138.114 301.458C121.458 301.651 105.702 303.382 90.7621 302.265Z" fill="#36D6AD"/>
<path d="M63.8722 121.975C72.3798 108.575 81.1211 101.575 94.362 93.2718C99.821 89.8467 106.41 85.5242 106.107 78.9149C105.845 73.2028 100.229 69.2888 94.8399 68.0633C82.7256 65.3155 69.8334 71.6945 62.1142 81.7395C54.3949 91.7844 51.1928 104.884 50.53 117.702C50.3417 121.239 50.7672 125.564 53.8647 127.08C57.5133 128.864 61.3607 125.229 63.8722 121.961" fill="#36D6AD"/>
<path d="M228.635 261.55C229.018 260.851 229.353 260.125 229.636 259.379C231.338 254.972 233.033 253.747 234.739 248.705C234.963 247.913 235.304 247.159 235.75 246.467C237.421 244.128 241.119 244.166 243.508 245.769C248.119 248.859 248.447 256.118 245.13 260.573C241.59 265.321 235.15 267.168 229.29 266.927C228.996 266.917 228.712 266.816 228.477 266.638C228.242 266.46 228.068 266.213 227.979 265.932C227.466 264.225 227.923 262.839 228.635 261.55Z" fill="#36D6AD"/>
<path d="M241.167 160.926C239.66 170.961 234.009 180.444 225.47 185.988C222.924 187.636 219.91 189.274 219.132 192.21C218.634 194.071 219.185 196.05 219.691 197.894C227.727 227.678 226.123 259.246 215.111 288.061C214.375 289.961 211.514 295.676 211.514 295.676C211.514 295.676 167.354 304.754 153.96 304.897L154.553 300.554L155.216 295.666C156.231 288.138 157.434 279.497 158.763 270.216C166.611 215.254 178.597 137.781 179.368 135.327C181.708 127.834 186.818 149.345 187.024 157.194C188.449 155.312 190.252 153.749 192.317 152.606C194.382 151.464 196.663 150.767 199.013 150.56C197.213 142.201 197.565 135.948 200.017 128.047C200.056 127.915 200.133 127.798 200.238 127.71C200.344 127.623 200.472 127.567 200.608 127.552C200.745 127.537 200.882 127.562 201.004 127.625C201.126 127.687 201.227 127.784 201.294 127.904C206.076 136.182 206.641 143.416 209.488 153.308C209.966 154.959 209.802 157.148 211.413 157.738C212.397 158.088 213.482 157.658 214.437 157.236L231.529 149.694C234.42 148.423 237.313 147.143 240.208 145.853C241.638 150.745 241.965 155.893 241.167 160.926Z" fill="#FFF3DB"/>
<path d="M160.326 279.476C160.326 279.476 151.881 216.943 125.249 195.726C124.9 195.457 125.831 195.726 125.859 196.145C126.512 205.606 130.045 278.086 154.682 300.679L160.326 279.476Z" fill="#FFF3DB"/>
<path d="M241.167 160.926C236.388 158.276 233.238 153.245 231.512 149.691C234.402 148.42 237.295 147.14 240.19 145.85C241.626 150.741 241.96 155.891 241.167 160.926Z" fill="#1A2B60"/>
<path d="M196.055 171.631C196.805 173.509 196.819 175.269 196.086 175.562C195.354 175.856 194.154 174.567 193.407 172.692C192.661 170.817 192.643 169.054 193.376 168.761C194.108 168.468 195.308 169.753 196.055 171.631Z" fill="#1A2B60"/>
<path d="M205.909 166.757C206.655 168.632 206.669 170.392 205.937 170.685C205.204 170.978 204.004 169.693 203.258 167.815C202.512 165.937 202.494 164.177 203.227 163.887C203.959 163.597 205.159 164.879 205.909 166.757Z" fill="#1A2B60"/>
<path d="M222.736 185.031C222.736 185.031 213.077 196.414 204.598 185.988" stroke="#1A2B60" stroke-miterlimit="10" stroke-linecap="round"/>
<path d="M51.1433 299.562C51.1433 299.562 43.4694 219.751 70.356 161.834L78.3438 182.86C82.4137 181.665 86.7405 181.665 90.8104 182.86L99.1122 161.834C99.1122 161.834 134.22 235.389 127.68 308.378L51.1433 299.562Z" fill="white"/>
<path d="M77.2174 194.092C77.2174 196.452 76.5477 198.362 75.721 198.362C74.8943 198.362 74.2246 196.452 74.2246 194.092C74.2246 191.732 74.8943 189.822 75.721 189.822C76.5477 189.822 77.2174 191.721 77.2174 194.092Z" fill="#1A2B60"/>
<path d="M87.6052 194.092C87.6052 196.452 86.9354 198.362 86.1087 198.362C85.282 198.362 84.6123 196.452 84.6123 194.092C84.6123 191.732 85.282 189.822 86.1087 189.822C86.9354 189.822 87.6052 191.721 87.6052 194.092Z" fill="#1A2B60"/>
<path d="M78.4449 209.605L51.9141 191.599" stroke="#1A2B60" stroke-width="0.5" stroke-miterlimit="10" stroke-linecap="round"/>
<path d="M78.4457 209.604L46.5605 217.953" stroke="#1A2B60" stroke-width="0.5" stroke-miterlimit="10" stroke-linecap="round"/>
<path d="M78.4457 209.605L53.2578 206.124" stroke="#1A2B60" stroke-width="0.5" stroke-miterlimit="10" stroke-linecap="round"/>
<path d="M82.2266 209.988L116.487 194.751" stroke="#1A2B60" stroke-width="0.5" stroke-miterlimit="10" stroke-linecap="round"/>
<path d="M82.2266 209.989L114.328 221.074" stroke="#1A2B60" stroke-width="0.5" stroke-miterlimit="10" stroke-linecap="round"/>
<path d="M82.2266 209.988L110.425 207.178" stroke="#1A2B60" stroke-width="0.5" stroke-miterlimit="10" stroke-linecap="round"/>
<path d="M100.413 256.314C112.406 258.758 125.423 255.999 135.295 248.741C140.178 245.144 144.364 240.525 147.095 235.071C149.77 229.646 151.173 223.68 151.197 217.63C151.221 211.58 149.866 205.604 147.235 200.157C145.906 197.458 144.229 194.946 142.247 192.685C139.997 190.119 137.311 187.978 134.545 185.999C129.03 182.05 122.633 178.621 118.597 173.108C116.707 170.528 115.343 167.812 114.854 164.652C114.449 161.71 115.154 158.722 116.832 156.272C120.39 150.902 126.906 148.221 132.002 144.328C134.709 142.257 137.269 139.789 138.72 136.668C140.091 133.707 140.705 130.303 139.847 127.104C139.427 125.581 138.666 124.173 137.621 122.988C137.008 122.29 135.787 122.356 135.155 122.988C134.837 123.32 134.659 123.762 134.659 124.222C134.659 124.682 134.837 125.125 135.155 125.456C135.347 125.663 135.516 125.89 135.658 126.134C135.85 126.44 136.022 126.76 136.17 127.09C136.073 126.87 136.195 127.143 136.205 127.174C136.268 127.342 136.327 127.523 136.383 127.684C136.505 128.089 136.603 128.5 136.676 128.916C136.777 129.479 136.676 128.609 136.708 129.178C136.708 129.301 136.728 129.423 136.735 129.527C136.755 129.897 136.755 130.268 136.735 130.638C136.724 131.299 136.633 131.957 136.463 132.596C135.766 135.501 134.112 137.855 131.831 139.929C127.038 144.31 120.669 146.803 116.114 151.604C113.832 154.01 112.011 156.981 111.474 160.298C110.988 163.587 111.449 166.947 112.803 169.983C114.149 173.053 116.051 175.846 118.412 178.223C120.854 180.744 123.76 182.818 126.651 184.798C129.543 186.777 132.414 188.582 135.106 190.733C136.4 191.757 137.625 192.864 138.776 194.047C139.241 194.531 139.691 195.03 140.126 195.544C140.66 196.173 140.883 196.463 141.315 197.06C142.168 198.24 142.941 199.475 143.632 200.757C144.252 201.907 144.802 203.094 145.278 204.311C146.311 206.99 147.025 209.782 147.406 212.628C147.371 212.37 147.406 212.674 147.406 212.712C147.427 212.893 147.451 213.061 147.472 213.26C147.51 213.609 147.545 213.99 147.573 214.356C147.634 215.09 147.671 215.825 147.685 216.563C147.719 217.975 147.675 219.388 147.552 220.795C147.521 221.144 147.482 221.528 147.441 221.895C147.42 222.076 147.399 222.244 147.374 222.443C147.413 222.163 147.357 222.551 147.35 222.617C147.238 223.376 147.103 224.13 146.945 224.88C146.658 226.26 146.292 227.623 145.85 228.961C145.637 229.604 145.407 230.236 145.152 230.864C144.898 231.493 144.723 231.912 144.378 232.634C142.55 236.493 140.006 239.97 136.882 242.878C134.819 244.839 132.533 246.55 130.07 247.976C127.633 249.436 125.044 250.627 122.35 251.527C116.892 253.393 111.099 254.077 105.356 253.534C104.012 253.415 102.676 253.214 101.355 252.934C100.91 252.822 100.438 252.886 100.039 253.113C99.6392 253.34 99.3424 253.712 99.21 254.152C98.9728 255.015 99.4995 256.111 100.427 256.3L100.413 256.314Z" fill="white"/>
<path d="M167.951 72.543C167.951 72.543 229.37 70.0431 239.688 128.249" stroke="#36D6AD" stroke-width="2" stroke-miterlimit="10" stroke-linecap="round"/>
<path d="M121.482 34.7478C117.737 33.7914 114.266 31.9757 111.344 29.4444C108.422 26.9132 106.128 23.7358 104.645 20.1639C103.71 17.863 103.131 15.3107 103.713 12.8981C104.296 10.4855 106.295 8.29633 108.768 8.12176C110.669 7.98559 112.5 9.03301 113.77 10.454C115.039 11.8751 115.863 13.6418 116.633 15.3771C115.378 12.2347 114.105 8.86543 114.732 5.53456C115.36 2.20369 118.74 -0.837388 121.963 0.210055C124.754 1.11435 125.929 4.34746 126.554 7.19301C128.566 16.421 128.504 26.5533 123.812 34.7443" fill="#FC7071"/>
<path d="M149.841 38.4766C148.001 36.4946 146.649 34.111 145.889 31.5148C145.13 28.9186 144.985 26.181 145.467 23.5191C145.788 21.8118 146.412 20.0939 147.668 18.8964C148.923 17.6988 150.929 17.1716 152.446 18.006C153.615 18.6485 154.295 19.9578 154.501 21.274C154.707 22.5903 154.501 23.9346 154.323 25.2508C154.777 22.9255 155.3 20.4675 156.932 18.7462C158.565 17.0249 161.697 16.5256 163.211 18.3622C164.502 19.9473 163.975 22.2971 163.26 24.2139C160.947 30.4008 157.079 36.3328 151.219 39.3669" fill="#FCF0E3"/>
<path d="M139.24 65.1479C137.525 66.0614 135.621 66.5626 133.679 66.6117C131.736 66.6608 129.809 66.2565 128.05 65.4307C126.927 64.893 125.846 64.1423 125.26 63.046C124.674 61.9497 124.66 60.4623 125.521 59.5545C125.873 59.2278 126.293 58.9842 126.752 58.8416C127.21 58.699 127.694 58.6611 128.169 58.7306C129.117 58.8762 130.036 59.1659 130.897 59.5895C129.369 58.8423 127.757 58.0253 126.864 56.5728C125.971 55.1204 126.198 52.8474 127.75 52.1456C129.09 51.5381 130.625 52.3377 131.821 53.1931C135.689 55.9409 139.097 59.7291 140.123 64.3658" fill="#36D6AD"/>
<path d="M30.3467 189C26.3379 195 11.3379 240.5 45.5125 287.089" stroke="#36D6AD" stroke-width="2" stroke-miterlimit="10" stroke-linecap="round"/>
</svg>
